<svg id="Vrstva_1" data-name="Vrstva 1" xmlns="http://www.w3.org/2000/svg" viewBox="0 0 130 28.64"><defs><style>.cls-1{fill:#0071af;}</style></defs><path class="cls-1" d="M22.94,17l.16-.56c.07-.21-.14-.34-.27-.35a.38.38,0,0,0-.35.24l-.06.18a.28.28,0,0,1-.24.19H20.33c-.14,0-.21-.07-.17-.19l1.38-4.67a.43.43,0,0,0-.28-.52.29.29,0,0,0-.13,0h-.95a.47.47,0,0,0-.49.29h0c-.05.13,0,.4.21.4H20c.11,0,.15,0,.12.16l-1.29,4.28a.31.31,0,0,1-.33.24c-.23,0-.38,0-.45.28a.33.33,0,0,0,.23.41.21.21,0,0,0,.11,0h3.94C22.65,17.36,22.84,17.3,22.94,17Z"/><path class="cls-1" d="M17.56,11.29h-.65c-.26,0-.44.14-.44.31a.34.34,0,0,0,.17.3c.15.08,0,.18,0,.24l-2,1.73c-.15.14-.29.08-.24-.12L15,11.87c.1-.32,0-.58-.37-.58h-.91c-.26,0-.48.07-.53.27a.34.34,0,0,0,.23.42h.12a.12.12,0,0,1,.14.1.17.17,0,0,1,0,.07l-1.36,4.36c0,.1-.09.12-.2.12H12a.47.47,0,0,0-.41.29c-.08.27.14.43.41.43h.95c.34,0,.44-.14.5-.43,0,0,0-.09.05-.13l.35-1c.09-.27.24-.46.44-.46s.32.2.4.37l.6,1.37a.49.49,0,0,0,.44.28h1a.38.38,0,0,0,.37-.34.37.37,0,0,0-.32-.36h-.1c-.17,0-.21,0-.27-.2l-.91-2.13a.29.29,0,0,1,.07-.28l2.23-2a.55.55,0,0,0,.2-.39C18,11.45,17.82,11.29,17.56,11.29Z"/><path class="cls-1" d="M5.28,21.47a.89.89,0,0,0-.41.28A1.42,1.42,0,0,1,5.28,21.47Z"/><path class="cls-1" d="M11,11.28H7.83c-.4,0-.63.11-.68.31L7,12c-.08.29.06.5.24.5a.4.4,0,0,0,.39-.23l0-.12c0-.11,0-.15.23-.15H9.37c.28,0,.23.13.13.25L5.79,16.68c-.32.38,0,.68.36.68H9.51a.54.54,0,0,0,.6-.44l.11-.42a.33.33,0,0,0-.21-.43.2.2,0,0,0-.11,0,.35.35,0,0,0-.38.28l0,.17a.28.28,0,0,1-.26.2H7.77c-.17,0-.28-.13-.14-.3L11.32,12C11.63,11.61,11.41,11.28,11,11.28Z"/><path class="cls-1" d="M21.75,4.87l0,0,0,0Z"/><path class="cls-1" d="M14.32,0A14.32,14.32,0,1,0,28.64,14.32h0A14.34,14.34,0,0,0,14.32,0ZM1.93,9.32a1.29,1.29,0,0,0-.07.43,1.43,1.43,0,0,0,2.75.57,10.54,10.54,0,0,0-.79,4,1.43,1.43,0,0,0-1.43-1.41,1.41,1.41,0,0,0-1,.42.57.57,0,1,1,.8.81.58.58,0,0,1-.81,0,.6.6,0,0,1-.16-.41.55.55,0,0,1,.16-.4,1.51,1.51,0,0,0-.42,1A13.36,13.36,0,0,1,1.93,9.32Zm6.81,17a1.46,1.46,0,0,0,.41.29A13.55,13.55,0,0,1,5,23.9a1.72,1.72,0,0,1-.27-.27A13.52,13.52,0,0,1,2,19.49a1.43,1.43,0,1,0,.29-1.62.57.57,0,0,1,1,.42.58.58,0,0,1-1.15,0,.56.56,0,0,1,.17-.4,1.44,1.44,0,0,0-.36,1.43,13.25,13.25,0,0,1-1-5,1.44,1.44,0,0,0,2.87,0,10.41,10.41,0,0,0,3.06,7.39,1.44,1.44,0,0,0-1-.41,1.36,1.36,0,0,0-.6.14.86.86,0,0,1,.84.12.88.88,0,0,1,.16,1.24.89.89,0,0,1-1.41-1.08,1.43,1.43,0,0,0-.13,1.88L5,23.9a1.44,1.44,0,0,0,.87.29,1.44,1.44,0,0,0,1-2.43A10.35,10.35,0,0,0,10.18,24a1.43,1.43,0,0,0-1.44.36.47.47,0,0,1,.66.07.47.47,0,0,1-.73.58.49.49,0,0,1-.07-.45A1.41,1.41,0,0,0,8.74,26.36Zm5.58-2.49a9.55,9.55,0,1,1,9.55-9.55h0a9.57,9.57,0,0,1-9.55,9.55Zm-5,2.85a1.43,1.43,0,0,0,1-2.7,10.43,10.43,0,0,0,4,.81,1.43,1.43,0,0,0-1,.41.58.58,0,1,1,0,.81.54.54,0,0,1-.17-.4.71.71,0,0,1,0-.21,1.41,1.41,0,0,0,.13,1.83,1.44,1.44,0,0,0,1,.42A13.28,13.28,0,0,1,9.33,26.72Zm5,1a1.43,1.43,0,0,0,1-.42,1.37,1.37,0,0,0,.41-1h0a1.43,1.43,0,0,0-1.4-1.43,10.52,10.52,0,0,0,3.94-.78,1.65,1.65,0,0,0-.41.28.58.58,0,1,1,0,.82.58.58,0,0,1,0-.82,1.43,1.43,0,0,0,1.44,2.38A13.42,13.42,0,0,1,14.33,27.69Zm5.16-1.05A1.42,1.42,0,0,0,18.35,24a10.57,10.57,0,0,0,3.39-2.27l0,0a.55.55,0,0,1,.39-.16.58.58,0,1,1-.57.58.57.57,0,0,1,0-.22,1.41,1.41,0,0,0,2,2A13.36,13.36,0,0,1,19.49,26.64Zm4.41-3a1.41,1.41,0,0,0-.27-2,1.37,1.37,0,0,0-.87-.3h0a1.45,1.45,0,0,0-1,.41A10.46,10.46,0,0,0,24,18.37a1.43,1.43,0,0,0,.31,1.53,1.45,1.45,0,0,0,2,0,1.57,1.57,0,0,0,.29-.42A13.56,13.56,0,0,1,23.9,23.62Zm1.35-14.9a.64.64,0,1,1-.92,0,1.43,1.43,0,0,0,2,2,1.45,1.45,0,0,0,.35-1.43,13.2,13.2,0,0,1,1,5,1.43,1.43,0,0,0-1.43-1.4,1.41,1.41,0,0,0-1,.42.56.56,0,0,1,.4-.17.58.58,0,1,1-.57.58.54.54,0,0,1,0-.22,1.42,1.42,0,0,0,.13,1.84,1.43,1.43,0,0,0,2,0,1.42,1.42,0,0,0,.42-1,13.25,13.25,0,0,1-1,5h0a1.47,1.47,0,0,0,.06-.42,1.43,1.43,0,0,0-2.44-1,.58.58,0,0,1,.81,0,.57.57,0,1,1-1,.4.59.59,0,0,1,.16-.4,1.52,1.52,0,0,0-.3.46A10.49,10.49,0,0,0,21.76,6.91,1.43,1.43,0,0,0,23.9,5l-.27-.27a1.43,1.43,0,0,0-1.85.1.56.56,0,0,1,.37-.15.6.6,0,0,1,.59.58.58.58,0,1,1-1-.41,1.44,1.44,0,0,0,0,2,10.41,10.41,0,0,0-7.41-3.07,1.43,1.43,0,1,0-1-2.45.58.58,0,1,1,0,.82.58.58,0,0,1,0-.82,1.43,1.43,0,0,0,1,2.44h0A10.49,10.49,0,0,0,6.9,6.89a1.41,1.41,0,0,0,.42-1A1.43,1.43,0,0,0,5.89,4.45a1.4,1.4,0,0,0-.88.3l0,0a.57.57,0,1,1-.16.79.5.5,0,0,1-.1-.31A.51.51,0,0,1,4.8,5l0,0A1.42,1.42,0,0,0,5,7a1.38,1.38,0,0,0,.87.29h0a1.38,1.38,0,0,0,1-.41,10.45,10.45,0,0,0-2.27,3.4,1.37,1.37,0,0,0,.11-.54A1.44,1.44,0,0,0,3.3,8.32h0a1.4,1.4,0,0,0-1,.42.54.54,0,0,1,.4-.17.58.58,0,1,1-.58.58.54.54,0,0,1,.17-.4A1.33,1.33,0,0,0,2,9.16,13.59,13.59,0,0,1,4.74,5l.13-.14L4.79,5,5,4.8l-.09.07A.75.75,0,0,1,5,4.75,13.37,13.37,0,0,1,9.15,2a1.42,1.42,0,0,0-.41.28.57.57,0,0,1,.41-.17.58.58,0,0,1,0,1.15.59.59,0,0,1-.58-.57.54.54,0,0,1,0-.22,1.41,1.41,0,0,0,.12,1.84,1.45,1.45,0,0,0,2,0,1.42,1.42,0,0,0,0-2,1.41,1.41,0,0,0-1-.42,1.23,1.23,0,0,0-.42.07,13.26,13.26,0,0,1,10,0,1.42,1.42,0,0,0-1.43.35.54.54,0,0,1,.4-.17.59.59,0,0,1,.58.58.58.58,0,0,1-.58.57.58.58,0,0,1-.53-.79A1.42,1.42,0,1,0,19.49,2a13.52,13.52,0,0,1,4.14,2.74A1.72,1.72,0,0,1,23.9,5a13.55,13.55,0,0,1,2.75,4.14,1.43,1.43,0,0,0-1.9-.7l-.2.14A.63.63,0,0,1,25.25,8.72Z"/><polygon class="cls-1" points="44.07 10.12 44.07 7.88 33.93 7.88 33.93 10.27 40.3 10.27 33.39 18.53 33.39 20.76 44.25 20.76 44.25 18.38 37.16 18.38 44.07 10.12"/><polygon class="cls-1" points="56.88 7.88 53.35 7.88 48.31 13.22 48.31 7.88 45.48 7.88 45.48 20.76 48.31 20.76 48.31 16.61 49.94 14.97 53.81 20.76 57.37 20.76 51.85 12.97 56.88 7.88"/><polygon class="cls-1" points="60.91 7.88 58.07 7.88 58.07 20.76 67.18 20.76 67.18 18.38 60.91 18.38 60.91 7.88"/><path class="cls-1" d="M78,15.14h4.75a6,6,0,0,1-.27,2.15,4.45,4.45,0,0,1-1,1.65A4.4,4.4,0,0,1,80,20a5.86,5.86,0,0,1-4.4-.1,4.83,4.83,0,0,1-1.65-1.29,5.57,5.57,0,0,1-1-1.9,8,8,0,0,1-.34-2.33,7.88,7.88,0,0,1,.34-2.31,6.19,6.19,0,0,1,1-2,4.87,4.87,0,0,1,4-1.86,4.48,4.48,0,0,1,3,1,4.94,4.94,0,0,1,1.64,2.64h.75a4.64,4.64,0,0,0-.65-1.8,5.16,5.16,0,0,0-1.19-1.36,5.58,5.58,0,0,0-1.62-.85,6.37,6.37,0,0,0-1.89-.29,5.89,5.89,0,0,0-2.59.56,5.56,5.56,0,0,0-1.91,1.49,6.46,6.46,0,0,0-1.18,2.17,8.66,8.66,0,0,0,0,5.21,6.12,6.12,0,0,0,1.17,2.12,5.58,5.58,0,0,0,1.91,1.43,6.44,6.44,0,0,0,4.22.3,5.23,5.23,0,0,0,1.42-.6,4.25,4.25,0,0,0,1.11-1A4,4,0,0,0,82.73,18h0v2.74h.69V14.45H78Z"/><path class="cls-1" d="M94.47,19.27c0-.3,0-.62,0-1a8.44,8.44,0,0,0,0-1,5.35,5.35,0,0,0-.18-1,2.39,2.39,0,0,0-.41-.83,2.34,2.34,0,0,0-.74-.62,3.21,3.21,0,0,0-1.18-.34v0a3.18,3.18,0,0,0,2-1.11,3.3,3.3,0,0,0,.73-2.19,3.53,3.53,0,0,0-.31-1.57,2.63,2.63,0,0,0-.88-1,3.59,3.59,0,0,0-1.3-.56,7.64,7.64,0,0,0-1.58-.17H85.2V20.76H86V14.9h4.59a4.83,4.83,0,0,1,1.41.18,2.44,2.44,0,0,1,.89.49,2,2,0,0,1,.5.71,3.29,3.29,0,0,1,.23.87,7.87,7.87,0,0,1,0,1c0,.33,0,.65,0,1s0,.63.06.92a2,2,0,0,0,.24.75h.88a1.51,1.51,0,0,1-.27-.64A6,6,0,0,1,94.47,19.27Zm-3.89-5.06H86V8.57h4.59a5.75,5.75,0,0,1,1.24.14,3.11,3.11,0,0,1,1.05.47,2.43,2.43,0,0,1,.72.84,2.64,2.64,0,0,1,.27,1.24,3.38,3.38,0,0,1-.25,1.33,2.51,2.51,0,0,1-.69.92,2.7,2.7,0,0,1-1,.53A4.38,4.38,0,0,1,90.58,14.21Z"/><path class="cls-1" d="M106.19,9.53a5.52,5.52,0,0,0-1.92-1.43,6.63,6.63,0,0,0-5.17,0,5.56,5.56,0,0,0-1.93,1.43A6.33,6.33,0,0,0,96,11.68,8.54,8.54,0,0,0,96,17a6.38,6.38,0,0,0,1.2,2.14,5.47,5.47,0,0,0,1.93,1.44,6.72,6.72,0,0,0,5.17,0,5.65,5.65,0,0,0,1.92-1.44,6.38,6.38,0,0,0,1.2-2.14h0a8.14,8.14,0,0,0,.41-2.64,8.14,8.14,0,0,0-.41-2.64A6.33,6.33,0,0,0,106.19,9.53Zm.46,7.14a5.72,5.72,0,0,1-1.05,1.92,5.09,5.09,0,0,1-1.67,1.31,5.31,5.31,0,0,1-6.18-1.31,5.87,5.87,0,0,1-1-1.92h0a7.82,7.82,0,0,1,0-4.69,5.78,5.78,0,0,1,1-1.92,5.12,5.12,0,0,1,7.85,0A5.63,5.63,0,0,1,106.65,12,7.82,7.82,0,0,1,106.65,16.67Z"/><path class="cls-1" d="M118.12,15.6a8.31,8.31,0,0,1-.21,2,3.92,3.92,0,0,1-.71,1.5,3.23,3.23,0,0,1-1.3,1,5.26,5.26,0,0,1-2,.33,4.3,4.3,0,0,1-1.59-.24,3.32,3.32,0,0,1-1.12-.65,3.2,3.2,0,0,1-.71-.92,4.83,4.83,0,0,1-.39-1,7.32,7.32,0,0,1-.19-1c0-.34,0-.63,0-.89V7.88h-.79V15.6c0,.29,0,.62,0,1a6.1,6.1,0,0,0,.67,2.37,3.34,3.34,0,0,0,.84,1.06,4.32,4.32,0,0,0,1.34.75,6.15,6.15,0,0,0,2,.29,6,6,0,0,0,2.41-.43,3.91,3.91,0,0,0,1.54-1.16,4.32,4.32,0,0,0,.82-1.73,9.09,9.09,0,0,0,.25-2.15V7.88h-.8Z"/><path class="cls-1" d="M129.62,9.62a3,3,0,0,0-1-1.1A3.25,3.25,0,0,0,127.44,8a6.89,6.89,0,0,0-1.2-.13h-5.48V20.76h.79V15H126a4.42,4.42,0,0,0,3-.92A3.28,3.28,0,0,0,130,11.49,4,4,0,0,0,129.62,9.62ZM129,12.48a2.71,2.71,0,0,1-.52.92,2.63,2.63,0,0,1-1,.68,3.9,3.9,0,0,1-1.47.26h-4.53V8.57h4.64a3.23,3.23,0,0,1,1.56.31,2.63,2.63,0,0,1,.91.78,2.39,2.39,0,0,1,.43,1,3.48,3.48,0,0,1,.11.85A3.14,3.14,0,0,1,129,12.48Z"/></svg>